<?xml version="1.0" encoding="UTF-8" standalone="no"?>
<svg width="64px" height="53px" viewBox="0 0 64 53" version="1.1" xmlns="http://www.w3.org/2000/svg" xmlns:xlink="http://www.w3.org/1999/xlink" xmlns:sketch="http://www.bohemiancoding.com/sketch/ns">
    <!-- Generator: Sketch 3.3.3 (12072) - http://www.bohemiancoding.com/sketch -->
    <title>blogtweet</title>
    <desc>Created with Sketch.</desc>
    <defs></defs>
    <g id="Page-1" stroke="none" stroke-width="1" fill="none" fill-rule="evenodd" sketch:type="MSPage">
        <g id="twitter-for-blog-tweets-+-twitter-for-blog-tweets" sketch:type="MSLayerGroup" fill="#BBDDFF">
            <path d="M4.40380859,3.42879212 C2.65478516,6.37581408 0.632324219,14.514486 8.34008789,20.9529627 C3.91455078,20.5359705 2.27026367,19.0974939 2.27026367,19.0974939 C2.27026367,19.0974939 3.02124023,29.9236658 12.6911621,32.1800134 C11.3776855,33.0721033 7.40771484,32.570882 7.40771484,32.570882 C7.40771484,32.570882 8.09008789,40.318928 19.2695312,41.8018376 C12.6911621,46.7012516 5.91137695,47.7649723 0.175537109,47.2412907 C25.09375,62.3020779 57.1491699,46.6541345 57.7150879,13.8968097 C61.6674805,10.7578937 62.1105957,9.60554994 63.8430176,7.24617496 C60.4306641,8.59798158 58.2160645,9.0889484 56.4858398,9.08894842 C61.1071777,6.2686359 62.203125,2.17097967 62.203125,2.17097967 C62.203125,2.17097967 56.7766113,4.6690265 53.9846191,5.08601868 C44.4699707,-4.1410321 29.4458008,3.15608704 31.4748535,17.1092125 C14.8041992,16.1963707 6.03320312,5.54207348 4.40380859,3.42879212 Z" id="twitter-for-blog-tweets" sketch:type="MSShapeGroup"></path>
        </g>
    </g>
</svg>