<?xml version="1.0" encoding="UTF-8" standalone="no"?>
<svg width="64px" height="64px" viewBox="0 0 64 64" version="1.1" xmlns="http://www.w3.org/2000/svg" xmlns:xlink="http://www.w3.org/1999/xlink" xmlns:sketch="http://www.bohemiancoding.com/sketch/ns">
    <!-- Generator: Sketch 3.3.2 (12043) - http://www.bohemiancoding.com/sketch -->
    <title>Facebook</title>
    <desc>Created with Sketch.</desc>
    <defs></defs>
    <g id="Page-1" stroke="none" stroke-width="1" fill="none" fill-rule="evenodd" sketch:type="MSPage">
        <g id="Companies" sketch:type="MSLayerGroup" transform="translate(-384.000000, -128.000000)" fill="#FFFFFF">
            <path d="M444.467798,192.00024 C446.418542,192.00024 448,190.418782 448,188.468038 L448,131.532202 C448,129.580978 446.418542,128 444.467798,128 L387.532442,128 C385.580978,128 384,129.580978 384,131.532202 L384,188.468038 C384,190.418782 385.580978,192.00024 387.532442,192.00024 L444.467798,192.00024 Z M428.159,191.890173 L428.159,167.156215 L436.478019,167.156215 L437.723522,157.51678 L428.159,157.51678 L428.159,151.362426 C428.159,148.571585 428.935461,146.669783 432.945817,146.669783 L438.060676,146.667389 L438.060676,138.045982 C437.175587,137.92872 434.139764,137.666196 430.607562,137.666196 C423.233101,137.666196 418.184426,142.158297 418.184426,150.408055 L418.184426,157.51678 L409.844065,157.51678 L409.844065,167.156215 L418.184426,167.156215 L418.184426,191.890173 L428.159,191.890173 Z" id="Facebook" sketch:type="MSShapeGroup"></path>
        </g>
    </g>
</svg>