<?xml version="1.0" encoding="UTF-8" standalone="no"?>
<svg width="64px" height="64px" viewBox="0 0 64 64" version="1.1" xmlns="http://www.w3.org/2000/svg" xmlns:xlink="http://www.w3.org/1999/xlink" xmlns:sketch="http://www.bohemiancoding.com/sketch/ns">
    <!-- Generator: Sketch 3.3.2 (12043) - http://www.bohemiancoding.com/sketch -->
    <title>Twitter</title>
    <desc>Created with Sketch.</desc>
    <defs></defs>
    <g id="Page-1" stroke="none" stroke-width="1" fill="none" fill-rule="evenodd" sketch:type="MSPage">
        <g id="Companies" sketch:type="MSLayerGroup" transform="translate(-384.000000, 0.000000)" fill="#FFFFFF">
            <path d="M388.403809,8.45361324 C386.654785,11.4006352 384.632324,19.5393071 392.340088,25.9777838 C387.914551,25.5607916 386.270264,24.122315 386.270264,24.122315 C386.270264,24.122315 387.02124,34.9484869 396.691162,37.2048346 C395.377686,38.0969244 391.407715,37.5957031 391.407715,37.5957031 C391.407715,37.5957031 392.090088,45.3437491 403.269531,46.8266587 C396.691162,51.7260727 389.911377,52.7897934 384.175537,52.2661118 C409.09375,67.326899 441.14917,51.6789556 441.715088,18.9216308 C445.66748,15.7827148 446.110596,14.6303711 447.843018,12.2709961 C444.430664,13.6228027 442.216064,14.1137695 440.48584,14.1137695 C445.107178,11.293457 446.203125,7.19580078 446.203125,7.19580078 C446.203125,7.19580078 440.776611,9.69384761 437.984619,10.1108398 C428.469971,0.883789019 413.445801,8.18090816 415.474854,22.1340336 C398.804199,21.2211918 390.033203,10.5668946 388.403809,8.45361324 Z" id="Twitter" sketch:type="MSShapeGroup"></path>
        </g>
    </g>
</svg>